<svg width="35" height="34" viewBox="0 0 35 34" fill="none" xmlns="http://www.w3.org/2000/svg">
<g id="basil:telegram-outline">
<path id="Vector" fill-rule="evenodd" clip-rule="evenodd" d="M8.94971 19.8616C9.01097 19.8804 9.07345 19.8951 9.1367 19.9055C9.53751 20.8499 9.93607 21.7953 10.3324 22.7416C11.045 24.4445 11.7632 26.1983 11.9205 26.7027C12.1174 27.3232 12.3242 27.7453 12.5509 28.0343C12.6685 28.1817 12.803 28.312 12.9617 28.4112C13.045 28.4617 13.1333 28.5034 13.2252 28.5358C13.6785 28.7058 14.0922 28.635 14.3515 28.5486C14.5037 28.4968 14.6485 28.4254 14.7821 28.3361L14.7892 28.3332L18.7927 25.8371L23.4181 29.3816C23.4861 29.4335 23.5598 29.4774 23.6391 29.5133C24.1945 29.7542 24.7328 29.8391 25.24 29.7712C25.7443 29.7003 26.1452 29.4892 26.4441 29.2498C26.7871 28.9729 27.0606 28.6197 27.2431 28.2185L27.2559 28.1873L27.2601 28.176L27.263 28.1703V28.1675L27.2644 28.1661C27.2876 28.1047 27.3065 28.0417 27.321 27.9777L31.5427 6.69223C31.5544 6.62387 31.561 6.55474 31.5625 6.4854C31.5625 5.86207 31.3274 5.26848 30.7763 4.91007C30.3031 4.60265 29.7775 4.58848 29.4446 4.61398C29.0876 4.64232 28.7561 4.73015 28.5337 4.80098C28.4094 4.84111 28.2866 4.88553 28.1654 4.93415L28.1498 4.94123L4.47162 14.2289L4.46879 14.2303C4.3885 14.2593 4.30955 14.2919 4.23221 14.3281C4.04437 14.4123 3.86425 14.5128 3.69387 14.6284C3.37229 14.848 2.63137 15.4515 2.75746 16.4488C2.85662 17.2421 3.40062 17.7309 3.73354 17.9661C3.91487 18.095 4.08771 18.1871 4.21521 18.248C4.27187 18.2763 4.39371 18.3245 4.44612 18.3471L4.46029 18.3514L8.94971 19.8616ZM28.9785 6.89623H28.9757L28.9389 6.91182L5.23237 16.2122L5.19554 16.2264L5.18137 16.2306C5.13797 16.2474 5.09542 16.2663 5.05387 16.2873C5.09348 16.3096 5.13414 16.3299 5.17571 16.3482L9.62687 17.8471C9.70546 17.8762 9.78132 17.9122 9.85354 17.9547L24.5543 9.34848L24.5685 9.3414C24.6259 9.30723 24.6844 9.2751 24.7441 9.24507C24.8461 9.19265 25.009 9.11615 25.1932 9.05948C25.3207 9.01982 25.699 8.9079 26.107 9.03965C26.3237 9.10727 26.5169 9.23478 26.6643 9.40749C26.8117 9.58019 26.9073 9.79105 26.94 10.0157C26.9927 10.2123 26.9942 10.4191 26.9442 10.6164C26.845 11.006 26.573 11.3091 26.3251 11.5415C26.1126 11.7398 23.3558 14.3975 20.6372 17.0211L16.9355 20.5911L16.2767 21.2286L24.5954 27.6065C24.7077 27.6534 24.8296 27.6728 24.951 27.6632C25.0121 27.6548 25.0695 27.6292 25.1167 27.5895C25.1741 27.5409 25.2233 27.4835 25.2626 27.4195L25.2655 27.4181L29.3596 6.77298C29.2308 6.80469 29.1044 6.8454 28.9814 6.89482L28.9785 6.89623ZM16.9921 24.4544L15.3318 23.1822L14.9295 25.7393L16.9921 24.4544ZM13.8089 20.6577L15.4593 19.064L19.161 15.4911L20.5395 14.1623L11.3028 19.5697L11.3524 19.6859C11.9349 21.0621 12.511 22.441 13.0807 23.8226L13.4816 21.2726C13.5182 21.0362 13.6335 20.8205 13.8089 20.6577Z" fill="#ECF8FF"/>
</g>
</svg>
