<svg aria-hidden="true" style="position: absolute; width: 0; height: 0; overflow: hidden;" version="1.1" xmlns="http://www.w3.org/2000/svg" xmlns:xlink="http://www.w3.org/1999/xlink">
<defs>
<symbol id="icon-logout" viewBox="0 0 32 32">
<path d="M16 4c0.34 0 0.667 0.13 0.914 0.364s0.396 0.552 0.416 0.891c0.020 0.339-0.091 0.673-0.309 0.934s-0.527 0.428-0.865 0.468l-0.156 0.009h-6.667c-0.327 0-0.642 0.12-0.886 0.337s-0.4 0.516-0.438 0.84l-0.009 0.156v16c0 0.327 0.12 0.642 0.337 0.886s0.516 0.4 0.84 0.438l0.156 0.009h6c0.34 0 0.667 0.131 0.914 0.364s0.396 0.552 0.416 0.891c0.020 0.339-0.091 0.673-0.309 0.934s-0.527 0.428-0.865 0.468l-0.156 0.009h-6c-1.020 0-2.002-0.39-2.744-1.090s-1.189-1.657-1.249-2.676l-0.007-0.235v-16c-0-1.020 0.39-2.002 1.090-2.744s1.657-1.189 2.676-1.249l0.235-0.007h6.667zM23.609 11.285l3.771 3.772c0.25 0.25 0.39 0.589 0.39 0.943s-0.14 0.693-0.39 0.943l-3.771 3.772c-0.25 0.25-0.589 0.39-0.943 0.39s-0.693-0.141-0.943-0.391-0.39-0.589-0.39-0.943c0-0.354 0.141-0.693 0.391-0.943l1.495-1.495h-7.219c-0.354 0-0.693-0.141-0.943-0.391s-0.391-0.589-0.391-0.943c0-0.354 0.141-0.693 0.391-0.943s0.589-0.391 0.943-0.391h7.219l-1.495-1.495c-0.25-0.25-0.391-0.589-0.391-0.943s0.14-0.693 0.39-0.943c0.25-0.25 0.589-0.391 0.943-0.391s0.693 0.14 0.943 0.39z"></path>
</symbol>
<symbol id="icon-bell" viewBox="0 0 29 32">
<path stroke-linejoin="miter" stroke-linecap="butt" stroke-miterlimit="4" stroke-width="2.1818" d="M24.363 12.669v-1.025c0-5.628-4.399-10.189-9.818-10.189s-9.818 4.561-9.818 10.189v1.025c0.002 1.224-0.348 2.423-1.007 3.455l-1.612 2.509c-1.471 2.291-0.348 5.405 2.211 6.129 6.685 1.895 13.766 1.895 20.451 0 2.559-0.724 3.681-3.839 2.211-6.128l-1.612-2.509c-0.66-1.031-1.009-2.23-1.008-3.455l0.001-0.001z"></path>
<path stroke-linejoin="miter" stroke-linecap="round" stroke-miterlimit="4" stroke-width="2.1818" d="M8 26.182c0.953 2.543 3.523 4.364 6.545 4.364s5.593-1.821 6.545-4.364"></path>
</symbol>
<symbol id="icon-setting" viewBox="0 0 32 32">
<path d="M26.533 16.88c-0.214-0.243-0.332-0.556-0.332-0.88s0.118-0.637 0.332-0.88l1.707-1.92c0.188-0.21 0.305-0.474 0.334-0.754s-0.032-0.562-0.174-0.806l-2.667-4.613c-0.14-0.243-0.353-0.436-0.61-0.551s-0.542-0.146-0.817-0.089l-2.507 0.507c-0.319 0.066-0.651 0.013-0.933-0.149s-0.496-0.422-0.6-0.731l-0.813-2.44c-0.089-0.265-0.26-0.495-0.487-0.658s-0.5-0.25-0.779-0.249h-5.333c-0.291-0.015-0.579 0.065-0.819 0.229s-0.421 0.402-0.514 0.678l-0.747 2.44c-0.104 0.309-0.317 0.569-0.6 0.731s-0.615 0.215-0.933 0.149l-2.573-0.507c-0.261-0.037-0.526 0.004-0.764 0.118s-0.436 0.295-0.57 0.522l-2.667 4.613c-0.145 0.241-0.21 0.521-0.186 0.802s0.136 0.546 0.32 0.758l1.693 1.92c0.214 0.243 0.332 0.556 0.332 0.88s-0.118 0.637-0.332 0.88l-1.693 1.92c-0.184 0.213-0.296 0.478-0.32 0.758s0.041 0.561 0.186 0.802l2.667 4.613c0.14 0.243 0.354 0.436 0.61 0.551s0.542 0.146 0.817 0.089l2.507-0.507c0.319-0.066 0.651-0.013 0.933 0.149s0.496 0.422 0.6 0.731l0.813 2.44c0.093 0.276 0.273 0.514 0.514 0.678s0.528 0.244 0.819 0.229h5.333c0.279 0.001 0.552-0.086 0.779-0.249s0.398-0.393 0.487-0.657l0.813-2.44c0.104-0.309 0.317-0.569 0.6-0.731s0.615-0.215 0.933-0.149l2.507 0.507c0.275 0.057 0.561 0.026 0.817-0.089s0.47-0.308 0.61-0.551l2.667-4.613c0.142-0.244 0.202-0.526 0.174-0.806s-0.146-0.544-0.334-0.754l-1.8-1.92zM24.547 18.667l1.067 1.2-1.707 2.96-1.573-0.32c-0.96-0.196-1.959-0.033-2.807 0.458s-1.486 1.277-1.793 2.208l-0.507 1.493h-3.413l-0.48-1.52c-0.307-0.931-0.945-1.717-1.793-2.208s-1.847-0.655-2.807-0.458l-1.573 0.32-1.733-2.947 1.067-1.2c0.656-0.733 1.019-1.683 1.019-2.667s-0.363-1.933-1.019-2.667l-1.067-1.2 1.707-2.933 1.573 0.32c0.96 0.196 1.959 0.033 2.807-0.458s1.486-1.277 1.793-2.208l0.507-1.507h3.413l0.507 1.52c0.307 0.931 0.945 1.717 1.793 2.208s1.847 0.655 2.807 0.458l1.573-0.32 1.707 2.96-1.067 1.2c-0.649 0.732-1.007 1.676-1.007 2.653s0.358 1.922 1.007 2.653zM15.52 10.667c-1.055 0-2.086 0.313-2.963 0.899s-1.561 1.419-1.964 2.394c-0.404 0.975-0.509 2.047-0.303 3.081s0.714 1.985 1.46 2.731 1.696 1.254 2.731 1.46c1.035 0.206 2.107 0.1 3.081-0.303s1.807-1.087 2.394-1.964c0.586-0.877 0.899-1.908 0.899-2.963 0-1.415-0.562-2.771-1.562-3.771s-2.357-1.562-3.771-1.562zM15.52 18.667c-0.527 0-1.043-0.156-1.481-0.449s-0.78-0.709-0.982-1.197c-0.202-0.487-0.255-1.023-0.152-1.541s0.357-0.992 0.73-1.365c0.373-0.373 0.848-0.627 1.365-0.73s1.053-0.050 1.541 0.152c0.487 0.202 0.904 0.544 1.197 0.982s0.449 0.954 0.449 1.482c0 0.707-0.281 1.385-0.781 1.886s-1.178 0.781-1.886 0.781z"></path>
</symbol>
<symbol id="icon-profile" viewBox="0 0 32 32">
<path d="M16 3.333c1.568-0 3.095 0.502 4.357 1.433s2.192 2.242 2.654 3.741c0.462 1.499 0.431 3.106-0.088 4.586s-1.498 2.754-2.795 3.637c2.25 0.825 4.202 2.305 5.604 4.249s2.19 4.263 2.263 6.659c0.007 0.133-0.013 0.266-0.058 0.391s-0.115 0.24-0.205 0.338-0.199 0.177-0.32 0.232c-0.121 0.055-0.252 0.086-0.385 0.090s-0.266-0.019-0.39-0.067c-0.124-0.048-0.238-0.12-0.333-0.213s-0.172-0.203-0.225-0.325c-0.053-0.122-0.080-0.254-0.081-0.387-0.079-2.598-1.167-5.063-3.033-6.873s-4.363-2.822-6.962-2.822-5.096 1.012-6.962 2.822c-1.866 1.81-2.954 4.275-3.033 6.873-0.008 0.265-0.121 0.516-0.314 0.698s-0.451 0.28-0.716 0.272-0.516-0.121-0.698-0.314c-0.182-0.193-0.28-0.451-0.272-0.716 0.073-2.395 0.861-4.714 2.263-6.658s3.354-3.423 5.604-4.249c-1.296-0.882-2.276-2.157-2.795-3.637s-0.55-3.087-0.088-4.586c0.462-1.499 1.392-2.81 2.654-3.741s2.789-1.433 4.357-1.433zM10.667 10.667c0 1.415 0.562 2.771 1.562 3.771s2.357 1.562 3.771 1.562 2.771-0.562 3.771-1.562c1-1 1.562-2.357 1.562-3.771s-0.562-2.771-1.562-3.771c-1-1-2.357-1.562-3.771-1.562s-2.771 0.562-3.771 1.562c-1 1-1.562 2.357-1.562 3.771z"></path>
</symbol>
<symbol id="icon-star" viewBox="0 0 32 32">
<path stroke-linejoin="round" stroke-linecap="round" stroke-miterlimit="4" stroke-width="2" d="M18.304 4.592l2.347 4.732c0.32 0.659 1.173 1.291 1.893 1.411l4.252 0.713c2.72 0.457 3.36 2.447 1.4 4.409l-3.307 3.333c-0.56 0.564-0.867 1.653-0.693 2.433l0.947 4.127c0.747 3.267-0.973 4.529-3.84 2.823l-3.987-2.38c-0.72-0.429-1.907-0.429-2.64 0l-3.984 2.38c-2.853 1.707-4.587 0.429-3.84-2.823l0.947-4.127c0.173-0.78-0.133-1.869-0.693-2.433l-3.307-3.333c-1.945-1.964-1.319-3.952 1.4-4.409l4.253-0.713c0.707-0.12 1.56-0.752 1.88-1.411l2.347-4.732c1.28-2.567 3.36-2.567 4.627 0"></path>
</symbol>
<symbol id="icon-home" viewBox="0 0 32 32">
<path d="M14.707 3.453c0.361-0.306 0.82-0.474 1.293-0.474s0.932 0.168 1.293 0.474l10 8.484c0.221 0.188 0.399 0.421 0.521 0.685s0.185 0.55 0.185 0.841v12.537c0 0.53-0.211 1.039-0.586 1.414s-0.884 0.586-1.414 0.586h-7.667c-0.265 0-0.52-0.105-0.707-0.293s-0.293-0.442-0.293-0.707v-8.333h-2.667v8.333c0 0.265-0.105 0.52-0.293 0.707s-0.442 0.293-0.707 0.293h-7.667c-0.53 0-1.039-0.211-1.414-0.586s-0.586-0.884-0.586-1.414v-12.537c0-0.587 0.259-1.145 0.707-1.525l10-8.484zM16 4.979l-10 8.484v12.537h6.667v-8.333c0-0.265 0.105-0.52 0.293-0.707s0.442-0.293 0.707-0.293h4.667c0.265 0 0.52 0.105 0.707 0.293s0.293 0.442 0.293 0.707v8.333h6.667v-12.537l-10-8.484z"></path>
</symbol>
<symbol id="icon-separete" viewBox="0 0 15 32">
<path  d="M0.281 0c3.783 4.093 10.252 4.093 14.035 0l-7.018 16.271 7.018 15.729c-3.87-3.889-10.165-3.889-14.035 0l7.018-15.729-7.018-16.271z"></path>
</symbol>
</defs>
</svg>