<svg width="64" height="74" viewBox="0 0 64 74" fill="none" xmlns="http://www.w3.org/2000/svg">
<path d="M52.938 16.573C53.0807 21.3097 52.927 26.0457 52.9647 30.7828C53.0261 40.6463 46.3724 47.6476 37.2518 50.3902C30.0969 52.5417 17.0035 55.5 17.0035 55.5C17.0999 43.1588 17.1361 31.5149 17.0035 19.1736C16.9784 16.5959 17.0578 14.2654 18.2616 11.1254C19.4655 7.98546 22.9889 0.499998 34.7757 0.5C46.5625 0.500002 52.5313 9.44162 52.938 16.573ZM25.7454 10.2051C23.4811 13.0184 22.8596 15.6635 22.9022 19.1736C22.9092 28.6826 22.9173 38.1918 22.9392 47.7008C31.9276 46.1066 46.8287 43.7006 46.9309 32.1743C46.9763 27.9088 46.9514 23.6414 47.0085 19.376C47.0512 15.9734 46.5961 12.8774 44.0754 10.3186C39.3481 5.18662 30.689 4.95787 25.7454 10.2051Z" fill="#0274FF"/>
<path d="M59.128 19.5C59.4384 19.5017 59.4384 19.5017 59.7551 19.5034C59.98 19.5039 60.2048 19.5044 60.4365 19.5049C60.6716 19.5082 60.9066 19.5115 61.1487 19.5149C61.5029 19.5152 61.5029 19.5152 61.8642 19.5155C63.6181 19.5277 63.6181 19.5277 63.9381 19.8348C63.9687 20.2317 63.98 20.6301 63.9834 21.0281C63.9861 21.2831 63.9888 21.5381 63.9915 21.8008C63.9933 22.2203 63.9933 22.2203 63.9952 22.6483C63.9968 22.9381 63.9984 23.2279 64 23.5265C63.9536 47.3324 61.3419 57.4517 29.6468 63.9489C29.6468 65.3711 29.6468 66.6038 29.6468 68.0691C31.3448 68.0691 32.5004 68.0691 34.0939 68.0691C34.2799 69.85 34.0945 71.6695 34.0939 73.457C29.3519 73.457 18.6996 73.5 18.6996 73.5V68.2275H23.4177C23.4177 67.2767 23.4177 64.7016 23.4177 63.9489L18 60.1457C50.6658 53.4901 57.6569 50.2651 57.9121 25.2576C57.9215 24.4172 57.9341 23.577 57.947 22.7366C57.9485 22.4794 57.95 22.2222 57.9515 21.9571C57.9571 21.6031 57.9571 21.6031 57.9629 21.2419C57.9649 21.0345 57.967 20.827 57.9691 20.6133C58.0759 19.8823 58.3622 19.5958 59.128 19.5Z" fill="#0274FF"/>
<path d="M1.88009 19.5021C2.23586 19.501 2.23586 19.501 2.59883 19.5C2.84676 19.5021 3.09469 19.5041 3.35013 19.5062C3.59806 19.5042 3.84599 19.5021 4.10143 19.5C4.33862 19.5007 4.5758 19.5014 4.82017 19.5021C5.03778 19.5027 5.25539 19.5033 5.4796 19.5039C6.0297 19.5727 6.0297 19.5727 6.62516 20.1048C6.70406 20.6654 6.70406 20.6654 6.71064 21.3676C6.71464 21.6308 6.71863 21.894 6.72274 22.1652C6.72432 22.4517 6.72589 22.7382 6.72751 23.0334C6.73186 23.3296 6.73621 23.6258 6.7407 23.931C6.75458 24.8838 6.76472 25.8365 6.77403 26.7892C6.62516 37.9392 9.32043 44.9185 12 48.5101C12 51.5696 12 53.0328 12 55.5C3.75965 50.8138 0.0342303 39.7632 0.025091 31.3213C0.0241 31.0012 0.0231091 30.6811 0.0220881 30.3512C0.020588 29.6789 0.0198821 29.0066 0.0199301 28.3342C0.0192739 27.3015 0.0138445 26.2688 0.00822737 25.2361C0.00735474 24.5819 0.00676321 23.9277 0.00648286 23.2735C0.00327385 22.8088 0.00327385 22.8088 0 22.3347C0.000916005 22.0495 0.00183201 21.7643 0.00277577 21.4705C0.0023515 21.2189 0.00192723 20.9674 0.0014901 20.7082C0.137139 19.5963 0.776419 19.5051 1.88009 19.5021Z" fill="#0274FF"/>
</svg>
